<svg xmlns="http://www.w3.org/2000/svg" xmlns:xlink="http://www.w3.org/1999/xlink" width="842" height="279.1"><rect width="842" height="279.1" rx="5" ry="5" class="a"/><svg y="0%" x="0%"><circle cx="20" cy="20" r="6" fill="#ff5f58"/><circle cx="40" cy="20" r="6" fill="#ffbd2e"/><circle cx="60" cy="20" r="6" fill="#18c132"/></svg><svg height="217.1" viewBox="0 0 80 21.71" width="800" x="16" xmlns="http://www.w3.org/2000/svg" xmlns:xlink="http://www.w3.org/1999/xlink" y="51"><style>@keyframes x{0%{transform:translateX(-80px)}7.2%{transform:translateX(-320px)}7.9%{transform:translateX(-400px)}12%{transform:translateX(-560px)}15%{transform:translateX(-720px)}15.1%{transform:translateX(-960px)}21.2%{transform:translateX(-1040px)}21.3%{transform:translateX(-1200px)}27%{transform:translateX(-1280px)}29.2%{transform:translateX(-1360px)}30.6%{transform:translateX(-1440px)}34.8%{transform:translateX(-1520px)}35.8%{transform:translateX(-1600px)}37.4%{transform:translateX(-1680px)}39.1%{transform:translateX(-1760px)}40.9%{transform:translateX(-1840px)}41.9%{transform:translateX(-1920px)}42.8%{transform:translateX(-2000px)}44.4%{transform:translateX(-2080px)}45.5%{transform:translateX(-2160px)}48.5%{transform:translateX(-2240px)}49.2%{transform:translateX(-2320px)}50.1%{transform:translateX(-2400px)}50.8%{transform:translateX(-2480px)}51.6%{transform:translateX(-2560px)}52.9%{transform:translateX(-2640px)}55.1%{transform:translateX(-2720px)}56.1%{transform:translateX(-2800px)}56.9%{transform:translateX(-2880px)}57.9%{transform:translateX(-2960px)}58.7%{transform:translateX(-3040px)}61.9%{transform:translateX(-3120px)}65%{transform:translateX(-3200px)}65.9%{transform:translateX(-3280px)}67.5%{transform:translateX(-3360px)}68.4%{transform:translateX(-3440px)}69.7%{transform:translateX(-3520px)}71.3%{transform:translateX(-3600px)}72.4%{transform:translateX(-3680px)}73.8%{transform:translateX(-3760px)}75%{transform:translateX(-3840px)}77.8%{transform:translateX(-3920px)}87.2%{transform:translateX(-4000px)}89.6%{transform:translateX(-4080px)}99.5%{transform:translateX(-4160px)}99.6%{transform:translateX(-4240px)}99.9%{transform:translateX(-4320px)}to{transform:translateX(-4480px)}}.a{fill:#282d35}.g{fill:#b9c0cb}.g,.i,.l{white-space:pre}.i{fill:#d290e4;font-weight:700}.l{fill:#a8cc8c}.m,.n{font-weight:700}.m{fill:#dbab79;white-space:pre}.n{fill:#a8cc8c}.n,.o,.q{white-space:pre}.o{fill:#b9c0cb;font-weight:700}.q{fill:#66c2cd}.r{fill:#dbab79}.A,.s,.t,.u,.z{fill:#282d35;white-space:pre}.A,.t,.u,.z{fill:#71bef2}.A,.u,.z{fill:#d290e4}.A,.z{fill:#e88388}.A{fill:#555}</style><g font-family="Monaco,Consolas,Menlo,'Bitstream Vera Sans Mono','Powerline Symbols',monospace" font-size="1.67"><defs><symbol id="1"></symbol><symbol id="2"><text y="1.67" class="m">21:10:23</text><text x="9.018" y="1.67" class="n">[I]</text><text x="13.026" y="1.67" class="g">➜</text><text x="15.03" y="1.67" class="o">node</text><text x="20.04" y="1.67" style="white-space:pre" fill="#66c2cd" text-decoration="underline">dist/main.mjs</text><text x="34.068" y="1.67" class="q">--to</text><text x="39.078" y="1.67" class="q">nl</text></symbol><symbol id="3"><path class="r" d="M1.002 0h11v2.171h-11z"/><text x="1.002" y="1.67" class="s">TRANSLATION</text><path class="r" d="M44.088 0h5v2.171h-5z"/><text x="44.088" y="1.67" class="s">INPUT</text></symbol><symbol id="4"><text x="45.09" y="1.67" class="l">??</text></symbol><symbol id="5"><path class="r" d="M1.002 0h11v2.171h-11z"/><text x="1.002" y="1.67" class="s">TRANSLATION</text><path class="r" d="M43.086 0h5v2.171h-5z"/><text x="43.086" y="1.67" class="s">INPUT</text></symbol><symbol id="6"><path class="r" d="M1.002 0h11v2.171h-11z"/><text x="1.002" y="1.67" class="s">TRANSLATION</text><path class="r" d="M42.084 0h5v2.171h-5z"/><text x="42.084" y="1.67" class="s">INPUT</text></symbol><symbol id="7"><path class="r" d="M1.002 0h11v2.171h-11z"/><text x="1.002" y="1.67" class="s">TRANSLATION</text><path class="r" d="M41.082 0h5v2.171h-5z"/><text x="41.082" y="1.67" class="s">INPUT</text></symbol><symbol id="8"><path class="r" d="M1.002 0h11v2.171h-11z"/><text x="1.002" y="1.67" class="s">TRANSLATION</text><path class="r" d="M40.08 0h5v2.171h-5z"/><text x="40.08" y="1.67" class="s">INPUT</text></symbol><symbol id="9"><path class="r" d="M1.002 0h11v2.171h-11z"/><text x="1.002" y="1.67" class="s">TRANSLATION</text><path class="r" d="M39.078 0h5v2.171h-5z"/><text x="39.078" y="1.67" class="s">INPUT</text></symbol><symbol id="10"><path class="r" d="M1.002 0h11v2.171h-11z"/><text x="1.002" y="1.67" class="s">TRANSLATION</text><path class="r" d="M38.076 0h5v2.171h-5z"/><text x="38.076" y="1.67" class="s">INPUT</text></symbol><symbol id="11"><path class="r" d="M1.002 0h11v2.171h-11z"/><text x="1.002" y="1.67" class="s">TRANSLATION</text><path class="r" d="M37.074 0h5v2.171h-5z"/><text x="37.074" y="1.67" class="s">INPUT</text></symbol><symbol id="12"><text x="38.076" y="1.67" class="l">??</text><text x="41.082" y="1.67" class="l">Translate</text><text x="51.102" y="1.67" class="l">text</text></symbol><symbol id="13"><path class="r" d="M1.002 0h11v2.171h-11z"/><text x="1.002" y="1.67" class="s">TRANSLATION</text><path class="r" d="M36.072 0h5v2.171h-5z"/><text x="36.072" y="1.67" class="s">INPUT</text></symbol><symbol id="14"><path class="r" d="M1.002 0h11v2.171h-11z"/><text x="1.002" y="1.67" class="s">TRANSLATION</text><path class="r" d="M35.07 0h5v2.171h-5z"/><text x="35.07" y="1.67" class="s">INPUT</text></symbol><symbol id="15"><path class="r" d="M1.002 0h11v2.171h-11z"/><text x="1.002" y="1.67" class="s">TRANSLATION</text><path class="r" d="M34.068 0h5v2.171h-5z"/><text x="34.068" y="1.67" class="s">INPUT</text></symbol><symbol id="16"><path class="r" d="M1.002 0h11v2.171h-11z"/><text x="1.002" y="1.67" class="s">TRANSLATION</text><path class="r" d="M33.066 0h5v2.171h-5z"/><text x="33.066" y="1.67" class="s">INPUT</text></symbol><symbol id="17"><text x="34.068" y="1.67" class="l">??</text><text x="37.074" y="1.67" class="l">Translate</text><text x="47.094" y="1.67" class="l">text</text><text x="52.104" y="1.67" class="l">in</text><text x="55.11" y="1.67" class="l">your</text></symbol><symbol id="18"><path class="r" d="M1.002 0h11v2.171h-11z"/><text x="1.002" y="1.67" class="s">TRANSLATION</text><path class="r" d="M32.064 0h5v2.171h-5z"/><text x="32.064" y="1.67" class="s">INPUT</text></symbol><symbol id="19"><path class="r" d="M1.002 0h11v2.171h-11z"/><text x="1.002" y="1.67" class="s">TRANSLATION</text><path class="r" d="M31.062 0h5v2.171h-5z"/><text x="31.062" y="1.67" class="s">INPUT</text></symbol><symbol id="20"><path class="r" d="M1.002 0h11v2.171h-11z"/><text x="1.002" y="1.67" class="s">TRANSLATION</text><path class="r" d="M30.06 0h5v2.171h-5z"/><text x="30.06" y="1.67" class="s">INPUT</text></symbol><symbol id="21"><path class="r" d="M1.002 0h11v2.171h-11z"/><text x="1.002" y="1.67" class="s">TRANSLATION</text><path class="r" d="M29.058 0h5v2.171h-5z"/><text x="29.058" y="1.67" class="s">INPUT</text></symbol><symbol id="22"><text x="2.004" y="1.67" class="o">0</text><text x="4.008" y="1.67" class="t">en</text><text x="7.014" y="1.67" class="t">Translate</text><text x="17.034" y="1.67" class="t">text</text><text x="22.044" y="1.67" class="t">in</text><text x="25.05" y="1.67" class="t">your</text><text x="30.06" y="1.67" class="t">terminal.</text><text x="43.086" y="1.67" class="l">??</text><text x="46.092" y="1.67" class="l">Translate</text><text x="56.112" y="1.67" class="l">text</text><text x="61.122" y="1.67" class="l">in</text><text x="64.128" y="1.67" class="l">your</text><text x="69.138" y="1.67" class="l">terminal.</text></symbol><symbol id="23"><text x="4.008" y="1.67" class="i">nl</text><text x="7.014" y="1.67" class="u">Vertaal</text><text x="15.03" y="1.67" class="u">tekst</text><text x="21.042" y="1.67" class="u">in</text><text x="24.048" y="1.67" class="u">uw</text><text x="27.054" y="1.67" class="u">terminal.</text></symbol><symbol id="a"><path fill="transparent" d="M0 0h80v11H0z"/></symbol><symbol id="b"><path fill="#6f7683" d="M0 0h1.102v2.171H0z"/></symbol></defs><path class="a" d="M0 0h80v21.71H0z"/><g style="animation-duration:10.763838999999999s;animation-iteration-count:infinite;animation-name:x;animation-timing-function:steps(1,end)"><svg width="4560"><svg><use xlink:href="#a"/><use xlink:href="#b" x="-.004"/></svg><svg x="80"><use xlink:href="#a"/><use xlink:href="#b" x="14.996" y="2.146"/><use xlink:href="#1"/><text y="3.841" class="m">21:10:23</text><text x="9.018" y="3.841" class="n">[I]</text><text x="13.026" y="3.841" class="g">➜</text></svg><svg x="160"><use xlink:href="#a"/><use xlink:href="#b" x="15.996" y="2.146"/><use xlink:href="#1"/><text y="3.841" class="m">21:10:23</text><text x="9.018" y="3.841" class="n">[I]</text><text x="13.026" y="3.841" class="g">➜</text><text x="15.03" y="3.841" class="g">n</text></svg><svg x="240"><use xlink:href="#a"/><use xlink:href="#b" x="15.996" y="2.146"/><use xlink:href="#1"/><text y="3.841" class="m">21:10:23</text><text x="9.018" y="3.841" class="n">[I]</text><text x="13.026" y="3.841" class="g">➜</text><text x="15.03" y="3.841" class="z">n</text></svg><svg x="320"><use xlink:href="#a"/><use xlink:href="#b" x="15.996" y="2.146"/><use xlink:href="#1"/><text y="3.841" class="m">21:10:23</text><text x="9.018" y="3.841" class="n">[I]</text><text x="13.026" y="3.841" class="g">➜</text><text x="15.03" y="3.841" class="z">n</text><text x="16.032" y="3.841" class="A">ode</text><text x="20.04" y="3.841" class="A">dist/main.mjs</text><text x="34.068" y="3.841" class="A">--to</text><text x="39.078" y="3.841" class="A">nl</text></svg><svg x="400"><use xlink:href="#a"/><use xlink:href="#b" x="16.996" y="2.146"/><use xlink:href="#1"/><text y="3.841" class="m">21:10:23</text><text x="9.018" y="3.841" class="n">[I]</text><text x="13.026" y="3.841" class="g">➜</text><text x="15.03" y="3.841" class="z">no</text><text x="17.034" y="3.841" class="A">de</text><text x="20.04" y="3.841" class="A">dist/main.mjs</text><text x="34.068" y="3.841" class="A">--to</text><text x="39.078" y="3.841" class="A">nl</text></svg><svg x="480"><use xlink:href="#a"/><use xlink:href="#b" x="40.996" y="2.146"/><use xlink:href="#1"/><text y="3.841" class="m">21:10:23</text><text x="9.018" y="3.841" class="n">[I]</text><text x="13.026" y="3.841" class="g">➜</text><text x="15.03" y="3.841" class="z">node</text><text x="20.04" y="3.841" class="z">dist/main.mjs</text><text x="34.068" y="3.841" class="z">--to</text><text x="39.078" y="3.841" class="z">nl</text></svg><svg x="560"><use xlink:href="#a"/><use xlink:href="#b" x="40.996" y="2.146"/><use xlink:href="#1"/><use xlink:href="#2" y="2.171"/></svg><svg x="640"><use xlink:href="#a"/><use xlink:href="#b" x="-.004" y="4.317"/><use xlink:href="#1"/><use xlink:href="#2" y="2.171"/></svg><svg x="720"><use xlink:href="#a"/><use xlink:href="#b" x="-.004" y="4.317"/><use xlink:href="#1"/><use xlink:href="#2" y="2.171"/></svg><svg x="800"><use xlink:href="#a"/><use xlink:href="#b" x="-.004" y="4.317"/><use xlink:href="#1"/><use xlink:href="#2" y="2.171"/></svg><svg x="880"><use xlink:href="#a"/><use xlink:href="#b" x="-.004" y="4.317"/><use xlink:href="#1"/><use xlink:href="#2" y="2.171"/></svg><svg x="960"><use xlink:href="#a"/><use xlink:href="#b" x="-.004" y="4.317"/><use xlink:href="#1"/><use xlink:href="#2" y="2.171"/></svg><svg x="1040"><use xlink:href="#a"/><use xlink:href="#1"/><use xlink:href="#2" y="2.171"/></svg><svg x="1120"><use xlink:href="#a"/><use xlink:href="#1"/><use xlink:href="#2" y="2.171"/><use xlink:href="#3" y="6.513"/><use xlink:href="#4" y="10.855"/></svg><svg x="1200"><use xlink:href="#a"/><use xlink:href="#1"/><use xlink:href="#2" y="2.171"/><use xlink:href="#3" y="6.513"/><use xlink:href="#4" y="10.855"/></svg><svg x="1280"><use xlink:href="#a"/><use xlink:href="#1"/><use xlink:href="#2" y="2.171"/><use xlink:href="#3" y="6.513"/><text x="45.09" y="12.525" class="l">??</text><text x="48.096" y="12.525" class="l">T</text></svg><svg x="1360"><use xlink:href="#a"/><use xlink:href="#1"/><use xlink:href="#2" y="2.171"/><use xlink:href="#5" y="6.513"/><text x="44.088" y="12.525" class="l">??</text><text x="47.094" y="12.525" class="l">Tr</text></svg><svg x="1440"><use xlink:href="#a"/><use xlink:href="#1"/><use xlink:href="#2" y="2.171"/><use xlink:href="#5" y="6.513"/><text x="44.088" y="12.525" class="l">??</text><text x="47.094" y="12.525" class="l">Tra</text></svg><svg x="1520"><use xlink:href="#a"/><use xlink:href="#1"/><use xlink:href="#2" y="2.171"/><use xlink:href="#6" y="6.513"/><text x="43.086" y="12.525" class="l">??</text><text x="46.092" y="12.525" class="l">Tran</text></svg><svg x="1600"><use xlink:href="#a"/><use xlink:href="#1"/><use xlink:href="#2" y="2.171"/><use xlink:href="#6" y="6.513"/><text x="43.086" y="12.525" class="l">??</text><text x="46.092" y="12.525" class="l">Trans</text></svg><svg x="1680"><use xlink:href="#a"/><use xlink:href="#1"/><use xlink:href="#2" y="2.171"/><use xlink:href="#7" y="6.513"/><text x="42.084" y="12.525" class="l">??</text><text x="45.09" y="12.525" class="l">Transl</text></svg><svg x="1760"><use xlink:href="#a"/><use xlink:href="#1"/><use xlink:href="#2" y="2.171"/><use xlink:href="#7" y="6.513"/><text x="42.084" y="12.525" class="l">??</text><text x="45.09" y="12.525" class="l">Transla</text></svg><svg x="1840"><use xlink:href="#a"/><use xlink:href="#1"/><use xlink:href="#2" y="2.171"/><use xlink:href="#8" y="6.513"/><text x="41.082" y="12.525" class="l">??</text><text x="44.088" y="12.525" class="l">Translat</text></svg><svg x="1920"><use xlink:href="#a"/><use xlink:href="#1"/><use xlink:href="#2" y="2.171"/><use xlink:href="#8" y="6.513"/><text x="41.082" y="12.525" class="l">??</text><text x="44.088" y="12.525" class="l">Translate</text></svg><svg x="2000"><use xlink:href="#a"/><use xlink:href="#1"/><use xlink:href="#2" y="2.171"/><use xlink:href="#9" y="6.513"/><text x="40.08" y="12.525" class="l">??</text><text x="43.086" y="12.525" class="l">Translate</text></svg><svg x="2080"><use xlink:href="#a"/><use xlink:href="#1"/><use xlink:href="#2" y="2.171"/><use xlink:href="#9" y="6.513"/><text x="40.08" y="12.525" class="l">??</text><text x="43.086" y="12.525" class="l">Translate</text><text x="53.106" y="12.525" class="l">t</text></svg><svg x="2160"><use xlink:href="#a"/><use xlink:href="#1"/><use xlink:href="#2" y="2.171"/><use xlink:href="#10" y="6.513"/><text x="39.078" y="12.525" class="l">??</text><text x="42.084" y="12.525" class="l">Translate</text><text x="52.104" y="12.525" class="l">te</text></svg><svg x="2240"><use xlink:href="#a"/><use xlink:href="#1"/><use xlink:href="#2" y="2.171"/><use xlink:href="#10" y="6.513"/><text x="39.078" y="12.525" class="l">??</text><text x="42.084" y="12.525" class="l">Translate</text><text x="52.104" y="12.525" class="l">tex</text></svg><svg x="2320"><use xlink:href="#a"/><use xlink:href="#1"/><use xlink:href="#2" y="2.171"/><use xlink:href="#11" y="6.513"/><use xlink:href="#12" y="10.855"/></svg><svg x="2400"><use xlink:href="#a"/><use xlink:href="#1"/><use xlink:href="#2" y="2.171"/><use xlink:href="#11" y="6.513"/><use xlink:href="#12" y="10.855"/></svg><svg x="2480"><use xlink:href="#a"/><use xlink:href="#1"/><use xlink:href="#2" y="2.171"/><use xlink:href="#13" y="6.513"/><text x="37.074" y="12.525" class="l">??</text><text x="40.08" y="12.525" class="l">Translate</text><text x="50.1" y="12.525" class="l">text</text><text x="55.11" y="12.525" class="l">i</text></svg><svg x="2560"><use xlink:href="#a"/><use xlink:href="#1"/><use xlink:href="#2" y="2.171"/><use xlink:href="#13" y="6.513"/><text x="37.074" y="12.525" class="l">??</text><text x="40.08" y="12.525" class="l">Translate</text><text x="50.1" y="12.525" class="l">text</text><text x="55.11" y="12.525" class="l">in</text></svg><svg x="2640"><use xlink:href="#a"/><use xlink:href="#1"/><use xlink:href="#2" y="2.171"/><use xlink:href="#14" y="6.513"/><text x="36.072" y="12.525" class="l">??</text><text x="39.078" y="12.525" class="l">Translate</text><text x="49.098" y="12.525" class="l">text</text><text x="54.108" y="12.525" class="l">in</text></svg><svg x="2720"><use xlink:href="#a"/><use xlink:href="#1"/><use xlink:href="#2" y="2.171"/><use xlink:href="#14" y="6.513"/><text x="36.072" y="12.525" class="l">??</text><text x="39.078" y="12.525" class="l">Translate</text><text x="49.098" y="12.525" class="l">text</text><text x="54.108" y="12.525" class="l">in</text><text x="57.114" y="12.525" class="l">y</text></svg><svg x="2800"><use xlink:href="#a"/><use xlink:href="#1"/><use xlink:href="#2" y="2.171"/><use xlink:href="#15" y="6.513"/><text x="35.07" y="12.525" class="l">??</text><text x="38.076" y="12.525" class="l">Translate</text><text x="48.096" y="12.525" class="l">text</text><text x="53.106" y="12.525" class="l">in</text><text x="56.112" y="12.525" class="l">yo</text></svg><svg x="2880"><use xlink:href="#a"/><use xlink:href="#1"/><use xlink:href="#2" y="2.171"/><use xlink:href="#15" y="6.513"/><text x="35.07" y="12.525" class="l">??</text><text x="38.076" y="12.525" class="l">Translate</text><text x="48.096" y="12.525" class="l">text</text><text x="53.106" y="12.525" class="l">in</text><text x="56.112" y="12.525" class="l">you</text></svg><svg x="2960"><use xlink:href="#a"/><use xlink:href="#1"/><use xlink:href="#2" y="2.171"/><use xlink:href="#16" y="6.513"/><use xlink:href="#17" y="10.855"/></svg><svg x="3040"><use xlink:href="#a"/><use xlink:href="#1"/><use xlink:href="#2" y="2.171"/><use xlink:href="#16" y="6.513"/><use xlink:href="#17" y="10.855"/></svg><svg x="3120"><use xlink:href="#a"/><use xlink:href="#1"/><use xlink:href="#2" y="2.171"/><use xlink:href="#18" y="6.513"/><text x="33.066" y="12.525" class="l">??</text><text x="36.072" y="12.525" class="l">Translate</text><text x="46.092" y="12.525" class="l">text</text><text x="51.102" y="12.525" class="l">in</text><text x="54.108" y="12.525" class="l">your</text><text x="59.118" y="12.525" class="l">e</text></svg><svg x="3200"><use xlink:href="#a"/><use xlink:href="#1"/><use xlink:href="#2" y="2.171"/><use xlink:href="#16" y="6.513"/><use xlink:href="#17" y="10.855"/></svg><svg x="3280"><use xlink:href="#a"/><use xlink:href="#1"/><use xlink:href="#2" y="2.171"/><use xlink:href="#18" y="6.513"/><text x="33.066" y="12.525" class="l">??</text><text x="36.072" y="12.525" class="l">Translate</text><text x="46.092" y="12.525" class="l">text</text><text x="51.102" y="12.525" class="l">in</text><text x="54.108" y="12.525" class="l">your</text><text x="59.118" y="12.525" class="l">t</text></svg><svg x="3360"><use xlink:href="#a"/><use xlink:href="#1"/><use xlink:href="#2" y="2.171"/><use xlink:href="#18" y="6.513"/><text x="33.066" y="12.525" class="l">??</text><text x="36.072" y="12.525" class="l">Translate</text><text x="46.092" y="12.525" class="l">text</text><text x="51.102" y="12.525" class="l">in</text><text x="54.108" y="12.525" class="l">your</text><text x="59.118" y="12.525" class="l">te</text></svg><svg x="3440"><use xlink:href="#a"/><use xlink:href="#1"/><use xlink:href="#2" y="2.171"/><use xlink:href="#19" y="6.513"/><text x="32.064" y="12.525" class="l">??</text><text x="35.07" y="12.525" class="l">Translate</text><text x="45.09" y="12.525" class="l">text</text><text x="50.1" y="12.525" class="l">in</text><text x="53.106" y="12.525" class="l">your</text><text x="58.116" y="12.525" class="l">ter</text></svg><svg x="3520"><use xlink:href="#a"/><use xlink:href="#1"/><use xlink:href="#2" y="2.171"/><use xlink:href="#19" y="6.513"/><text x="32.064" y="12.525" class="l">??</text><text x="35.07" y="12.525" class="l">Translate</text><text x="45.09" y="12.525" class="l">text</text><text x="50.1" y="12.525" class="l">in</text><text x="53.106" y="12.525" class="l">your</text><text x="58.116" y="12.525" class="l">term</text></svg><svg x="3600"><use xlink:href="#a"/><use xlink:href="#1"/><use xlink:href="#2" y="2.171"/><use xlink:href="#20" y="6.513"/><text x="31.062" y="12.525" class="l">??</text><text x="34.068" y="12.525" class="l">Translate</text><text x="44.088" y="12.525" class="l">text</text><text x="49.098" y="12.525" class="l">in</text><text x="52.104" y="12.525" class="l">your</text><text x="57.114" y="12.525" class="l">termi</text></svg><svg x="3680"><use xlink:href="#a"/><use xlink:href="#1"/><use xlink:href="#2" y="2.171"/><use xlink:href="#20" y="6.513"/><text x="31.062" y="12.525" class="l">??</text><text x="34.068" y="12.525" class="l">Translate</text><text x="44.088" y="12.525" class="l">text</text><text x="49.098" y="12.525" class="l">in</text><text x="52.104" y="12.525" class="l">your</text><text x="57.114" y="12.525" class="l">termin</text></svg><svg x="3760"><use xlink:href="#a"/><use xlink:href="#1"/><use xlink:href="#2" y="2.171"/><use xlink:href="#21" y="6.513"/><text x="30.06" y="12.525" class="l">??</text><text x="33.066" y="12.525" class="l">Translate</text><text x="43.086" y="12.525" class="l">text</text><text x="48.096" y="12.525" class="l">in</text><text x="51.102" y="12.525" class="l">your</text><text x="56.112" y="12.525" class="l">termina</text></svg><svg x="3840"><use xlink:href="#a"/><use xlink:href="#1"/><use xlink:href="#2" y="2.171"/><use xlink:href="#21" y="6.513"/><text x="30.06" y="12.525" class="l">??</text><text x="33.066" y="12.525" class="l">Translate</text><text x="43.086" y="12.525" class="l">text</text><text x="48.096" y="12.525" class="l">in</text><text x="51.102" y="12.525" class="l">your</text><text x="56.112" y="12.525" class="l">terminal</text></svg><svg x="3920"><use xlink:href="#a"/><use xlink:href="#1"/><use xlink:href="#2" y="2.171"/><path class="r" d="M1.002 6.513h11v2.171h-11z"/><text x="1.002" y="8.183" class="s">TRANSLATION</text><path class="r" d="M28.056 6.513h5v2.171h-5z"/><text x="28.056" y="8.183" class="s">INPUT</text><text x="29.058" y="12.525" class="l">??</text><text x="32.064" y="12.525" class="l">Translate</text><text x="42.084" y="12.525" class="l">text</text><text x="47.094" y="12.525" class="l">in</text><text x="50.1" y="12.525" class="l">your</text><text x="55.11" y="12.525" class="l">terminal.</text></svg><svg x="4000"><use xlink:href="#a"/><use xlink:href="#1"/><use xlink:href="#2" y="2.171"/><use xlink:href="#6" y="6.513"/><text x="2.004" y="12.525" class="o">0</text><text x="4.008" y="12.525" class="t">??</text><text x="7.014" y="12.525" class="t">Translate</text><text x="17.034" y="12.525" class="t">text</text><text x="22.044" y="12.525" class="t">in</text><text x="25.05" y="12.525" class="t">your</text><text x="30.06" y="12.525" class="t">terminal.</text><text x="43.086" y="12.525" class="l">??</text><text x="46.092" y="12.525" class="l">Translate</text><text x="56.112" y="12.525" class="l">text</text><text x="61.122" y="12.525" class="l">in</text><text x="64.128" y="12.525" class="l">your</text><text x="69.138" y="12.525" class="l">terminal.</text><text x="4.008" y="14.696" class="i">nl</text><text x="7.014" y="14.696" class="u">...</text></svg><svg x="4080"><use xlink:href="#a"/><use xlink:href="#1"/><use xlink:href="#2" y="2.171"/><use xlink:href="#6" y="6.513"/><use xlink:href="#22" y="10.855"/><use xlink:href="#23" y="13.026"/></svg><svg x="4160"><use xlink:href="#a"/><use xlink:href="#b" x="-.004" y="21.685"/><use xlink:href="#1"/><use xlink:href="#2" y="2.171"/><use xlink:href="#6" y="6.513"/><use xlink:href="#22" y="10.855"/><use xlink:href="#23" y="13.026"/></svg><svg x="4240"><use xlink:href="#a"/><use xlink:href="#b" x="-.004" y="21.685"/><use xlink:href="#1"/><use xlink:href="#2" y="2.171"/><use xlink:href="#6" y="6.513"/><use xlink:href="#22" y="10.855"/><use xlink:href="#23" y="13.026"/></svg><svg x="4320"><use xlink:href="#a"/><use xlink:href="#b" x="-.004" y="21.685"/><use xlink:href="#1"/><use xlink:href="#2" y="2.171"/><use xlink:href="#6" y="6.513"/><use xlink:href="#22" y="10.855"/><use xlink:href="#23" y="13.026"/></svg><svg x="4400"><use xlink:href="#a"/><use xlink:href="#b" x="-.004" y="21.685"/><use xlink:href="#1"/><use xlink:href="#2" y="2.171"/><use xlink:href="#6" y="6.513"/><use xlink:href="#22" y="10.855"/><use xlink:href="#23" y="13.026"/></svg><svg x="4480"><use xlink:href="#a"/><use xlink:href="#b" x="-.004" y="21.685"/><use xlink:href="#1"/><use xlink:href="#2" y="2.171"/><use xlink:href="#6" y="6.513"/><use xlink:href="#22" y="10.855"/><use xlink:href="#23" y="13.026"/></svg></svg></g></g></svg></svg>
